:SAMPLES-PER-SECOND 24
:FULLY-SPECIFIED
:DEGREES
85
root  2.45583 40.5186 6.08184 178.141 4.1106 177.79
RightUpLeg  1.92451 -2.36355 -2.53598
RightLeg  6.42074 0.523721 0.978732
RightFoot  -2.46536 -0.0571124 0.521864
RightToes  -1.46215e-006 3.27826e-006 1.63871e-007
Spine  1.98915 0.435505 4.77046
Spine1  10.588 1.22257 -2.44123
HEad  -3.3098 5.32328 -3.47504
LeftShoulder1  2.27 -3.74253 -25.1569
LeftArm  2.48199 -42.4247 -51.1426
LeftForeArm  88.0051 -73.3023 -134.89
LeftHand  0.879108 10.4343 20.3766
RightShoulder  2.26178 4.53016 21.9165
RightArm  -6.56515 37.5691 50.0683
RightForeArm  88.725 70.264 142.765
RightHand  0.319861 -6.97919 -23.7008
LeftUpLeg  -0.462389 3.93087 9.89389
LeftLeg  7.82338 -6.30216 -1.41889
LeftFoot  5.13976 1.88001 -13.1391
LeftToes  1.24762e-006 1.46925e-008 1.29056e-009
86
root  1.87369 40.4877 5.92883 178.001 4.37788 177.751
RightUpLeg  1.94897 -2.95311 -3.64949
RightLeg  6.97986 1.64986 1.01918
RightFoot  -2.86011 -0.134592 1.55438
RightToes  -1.46215e-006 3.27826e-006 1.63871e-007
Spine  2.28166 0.389635 5.21851
Spine1  9.983 1.25713 -2.57271
HEad  -2.88483 5.3417 -3.22832
LeftShoulder1  2.20325 -3.73111 -24.2425
LeftArm  2.68511 -46.4892 -53.5138
LeftForeArm  96.0463 -69.8477 -144.299
LeftHand  1.0641 11.3878 20.6657
RightShoulder  2.08925 4.31176 20.3955
RightArm  -4.47524 41.8104 53.1448
RightForeArm  93.1571 67.4776 148.211
RightHand  0.341542 -7.03746 -24.326
LeftUpLeg  0.00329165 3.52403 9.61502
LeftLeg  8.22741 -8.42841 -1.60806
LeftFoot  3.15096 1.5255 -12.0926
LeftToes  1.24762e-006 1.46925e-008 1.29056e-009
87
root  1.21922 40.4635 5.74181 178.007 4.61501 178.006
RightUpLeg  2.19408 -3.32329 -4.52446
RightLeg  6.874 2.50002 1.0144
RightFoot  -2.90331 -0.211974 2.60473
RightToes  -1.46215e-006 3.27826e-006 1.63871e-007
Spine  2.13488 0.285011 5.77177
Spine1  9.76801 1.18928 -2.75414
HEad  -2.56995 5.44638 -2.81331
LeftShoulder1  2.08808 -3.59526 -23.144
LeftArm  3.94477 -49.1997 -56.2703
LeftForeArm  101.682 -66.7553 -149.958
LeftHand  1.04305 11.1838 20.969
RightShoulder  1.94336 4.12866 19.0213
RightArm  -2.29536 44.364 56.2443
RightForeArm  96.9184 65.1161 151.799
RightHand  0.279026 -6.72058 -24.6495
LeftUpLeg  0.395586 3.27352 9.10779
LeftLeg  8.00014 -1.75103 -0.352593
LeftFoot  3.07882 1.27068 -10.1796
LeftToes  1.24762e-006 1.46925e-008 1.29056e-009
88
root  0.554281 40.4455 5.51002 178.03 5.1936 178.756
RightUpLeg  2.88932 -3.18446 -4.75469
RightLeg  5.8936 3.08543 0.826634
RightFoot  -2.54182 -0.29234 3.57224
RightToes  -1.46215e-006 3.27826e-006 1.63871e-007
Spine  1.70565 0.435276 5.74045
Spine1  9.8261 1.06625 -2.04158
HEad  -2.30529 5.48025 -2.36494
LeftShoulder1  1.99676 -3.4524 -22.3958
LeftArm  6.42661 -50.6422 -59.3769
LeftForeArm  105.846 -64.3756 -153.324
LeftHand  0.845394 10.2882 20.2054
RightShoulder  1.84108 3.95981 18.1636
RightArm  -0.260732 45.6201 58.2879
RightForeArm  99.4795 63.0832 154.324
RightHand  0.291861 -6.74881 -25.1533
LeftUpLeg  1.12757 3.67975 9.34156
LeftLeg  7.43676 3.13571 0.312158
LeftFoot  3.16493 1.33219 -10.5963
LeftToes  1.24762e-006 1.46925e-008 1.29056e-009
89
root  -0.115499 40.4183 5.27725 178.02 5.66969 179.538
RightUpLeg  3.57562 -2.95233 -4.94319
RightLeg  5.02252 3.53924 0.574046
RightFoot  -2.21735 -0.393758 4.74283
RightToes  -1.46215e-006 3.27826e-006 1.63871e-007
Spine  1.63251 0.569705 4.95067
Spine1  9.22517 0.755635 -0.795261
HEad  -1.57074 5.43805 -1.97255
LeftShoulder1  2.05313 -3.54939 -22.8243
LeftArm  9.40816 -50.6129 -60.797
LeftForeArm  108.17 -62.2402 -155.751
LeftHand  0.841097 10.3704 19.7997
RightShoulder  1.95204 4.09854 19.2532
RightArm  1.97635 45.4696 57.7577
RightForeArm  101.526 61.0703 156.444
RightHand  0.339489 -6.96191 -25.2312
LeftUpLeg  2.27219 4.22503 9.63201
LeftLeg  6.55121 2.61886 -0.356836
LeftFoot  1.76753 1.29208 -11.3018
LeftToes  1.24762e-006 1.46925e-008 1.29056e-009
90
root  -0.780834 40.3876 5.08792 178.047 5.35803 -179.99
RightUpLeg  4.02666 -2.88414 -5.42181
RightLeg  4.59374 3.34414 0.285619
RightFoot  -2.0012 -0.489961 5.82414
RightToes  -1.46215e-006 3.27826e-006 1.63871e-007
Spine  1.23808 0.434631 3.96411
Spine1  9.49269 0.251484 0.187444
HEad  -1.34983 5.09216 -1.79582
LeftShoulder1  2.06147 -3.55761 -22.9126
LeftArm  13.0332 -49.4311 -62.01
LeftForeArm  110.755 -60.5714 -157.456
LeftHand  0.84169 10.347 19.906
RightShoulder  2.11441 4.23218 21.0437
RightArm  4.54444 43.7407 56.5775
RightForeArm  104.908 59.0567 158.361
RightHand  0.276753 -6.78478 -23.4996
LeftUpLeg  3.08879 3.8869 8.92636
LeftLeg  5.52398 2.8063 -0.585356
LeftFoot  0.214751 1.01 -9.96557
LeftToes  1.24762e-006 1.46925e-008 1.29056e-009
91
root  -1.35445 40.3795 4.93551 178.143 4.8497 -179.772
RightUpLeg  4.49717 -2.91506 -5.97798
RightLeg  3.91521 2.83688 0.0291978
RightFoot  -1.63302 -0.543979 6.26758
RightToes  -1.46215e-006 3.27826e-006 1.63871e-007
Spine  0.364175 0.492204 2.90863
Spine1  10.8367 0.0179476 0.915471
HEad  -2.22755 4.20644 -1.71814
LeftShoulder1  2.02948 -3.48635 -22.7461
LeftArm  16.8236 -47.4161 -63.0534
LeftForeArm  114.153 -59.8824 -158.253
LeftHand  0.677274 9.59607 18.9923
RightShoulder  2.31247 4.42519 23.0015
RightArm  6.38799 40.2182 54.5177
RightForeArm  109.224 56.922 160.183
RightHand  0.112435 -6.04664 -21.4182
LeftUpLeg  3.46343 3.06162 7.6973
LeftLeg  4.69734 4.70186 -0.0307773
LeftFoot  -0.412319 0.792097 -8.24641
LeftToes  1.24762e-006 1.46925e-008 1.29056e-009
92
root  -1.7786 40.3894 4.80233 178.351 4.95752 -179.721
RightUpLeg  4.77408 -3.04114 -6.55713
RightLeg  3.12207 2.8697 -0.0632909
RightFoot  -1.19443 -0.585651 6.49712
RightToes  -1.46215e-006 3.27826e-006 1.63871e-007
Spine  -0.197739 0.849801 2.15725
Spine1  11.3418 0.341272 0.901988
HEad  -2.96516 3.42859 -1.40629
LeftShoulder1  2.15889 -3.68087 -23.8159
LeftArm  18.8945 -44.0127 -60.663
LeftForeArm  117.012 -59.6332 -158.642
LeftHand  0.547039 9.1048 17.562
RightShoulder  2.78216 5.08952 26.3633
RightArm  8.03105 34.8786 50.478
RightForeArm  113.65 55.087 161.632
RightHand  -0.0805919 -4.98623 -20.4268
LeftUpLeg  3.90108 2.47237 6.76484
LeftLeg  3.78313 5.52539 0.222171
LeftFoot  -0.591056 0.718152 -7.58886
LeftToes  1.24762e-006 1.46925e-008 1.29056e-009
93
root  -2.08457 40.4123 4.68876 178.631 5.36404 -179.718
RightUpLeg  4.87567 -3.18216 -7.04843
RightLeg  2.33379 3.03365 -0.0996364
RightFoot  -0.615924 -0.664262 7.02128
RightToes  -1.46215e-006 3.27826e-006 1.63871e-007
Spine  -0.724071 1.25437 2.05721
Spine1  11.8527 0.935225 0.246758
HEad  -3.34421 2.98695 -1.23127
LeftShoulder1  2.25561 -3.81035 -24.6484
LeftArm  20.2458 -39.316 -57.5952
LeftForeArm  120.18 -59.7391 -158.776
LeftHand  0.432718 8.50663 16.721
RightShoulder  3.08587 5.49168 28.367
RightArm  11.3291 27.9374 48.9903
RightForeArm  119.548 54.8422 162.109
RightHand  -0.273252 -3.77972 -19.0851
LeftUpLeg  4.49059 2.00651 6.05191
LeftLeg  2.47564 6.35935 0.2814
LeftFoot  -0.526859 0.677179 -7.11673
LeftToes  1.24762e-006 1.46925e-008 1.29056e-009
94
root  -2.29676 40.4301 4.6045 178.81 5.69939 -179.773
RightUpLeg  5.09761 -3.21793 -7.37526
RightLeg  1.45757 2.90861 -0.24328
RightFoot  -0.0482927 -0.742143 7.49232
RightToes  -1.46215e-006 3.27826e-006 1.63871e-007
Spine  -0.730577 1.69695 2.14379
Spine1  12.0495 1.58702 -0.362171
HEad  -3.45282 2.37587 -1.35512
LeftShoulder1  2.36986 -3.93448 -25.7071
LeftArm  21.5964 -33.9598 -54.616
LeftForeArm  123.076 -60.4965 -158.374
LeftHand  0.314167 7.75977 16.1842
RightShoulder  3.21741 5.65004 29.2213
RightArm  14.5377 20.0283 48.4621
RightForeArm  125.159 55.8718 161.821
RightHand  -0.412047 -2.65184 -17.1689
LeftUpLeg  4.95033 1.41777 5.30705
LeftLeg  1.44982 7.83182 0.560205
LeftFoot  -0.284537 0.641911 -6.61624
LeftToes  1.24762e-006 1.46925e-008 1.29056e-009
